<svg xmlns="http://www.w3.org/2000/svg" viewBox="0 0 130 120"><path d="M75 20 A45 45 0 0 1 60 105 A40 40 0 0 0 75 20 Z" fill="#ffffff"/><path d="M45 15 C20 15 10 32 10 50 C10 60 15 68 20 75 L15 95 L35 85 C40 87 45 88 50 88 C75 88 85 70 85 50 C85 30 75 15 45 15 Z" fill="none" stroke="#ffffff" stroke-width="8" stroke-linejoin="round"/><polyline points="32,32 22,42 32,52" fill="none" stroke="#ffffff" stroke-width="5" stroke-linecap="round" stroke-linejoin="round"/><line x1="42" y1="55" x2="52" y2="28" stroke="#ffffff" stroke-width="5" stroke-linecap="round"/><polyline points="62,32 72,42 62,52" fill="none" stroke="#ffffff" stroke-width="5" stroke-linecap="round" stroke-linejoin="round"/><line x1="22" y1="65" x2="30" y2="65" stroke="#ffffff" stroke-width="5" stroke-linecap="round"/><line x1="38" y1="65" x2="55" y2="65" stroke="#ffffff" stroke-width="5" stroke-linecap="round"/><line x1="63" y1="65" x2="75" y2="65" stroke="#ffffff" stroke-width="5" stroke-linecap="round"/><line x1="22" y1="78" x2="45" y2="78" stroke="#ffffff" stroke-width="5" stroke-linecap="round"/><line x1="53" y1="78" x2="75" y2="78" stroke="#ffffff" stroke-width="5" stroke-linecap="round"/></svg>